<?xml version="1.0" encoding="utf-8" ?>
<svg baseProfile="full" version="1.1" viewBox="0 0 500 500" xmlns="http://www.w3.org/2000/svg" xmlns:ev="http://www.w3.org/2001/xml-events"
    xmlns:xlink="http://www.w3.org/1999/xlink">
    <defs />
    <polygon fill="currentColor"
        points="280.0,495.0 279.0,496.0 278.0,496.0 275.0,499.0 275.0,500.0 274.0,501.0 274.0,507.0 275.0,508.0 275.0,509.0 278.0,512.0 279.0,512.0 280.0,513.0 331.0,513.0 332.0,512.0 333.0,512.0 336.0,509.0 336.0,508.0 337.0,507.0 337.0,501.0 336.0,500.0 336.0,499.0 333.0,496.0 332.0,496.0 331.0,495.0" />
    <polygon fill="currentColor"
        points="256.0,462.0 255.0,463.0 254.0,463.0 253.0,464.0 252.0,464.0 251.0,465.0 251.0,466.0 250.0,467.0 250.0,468.0 249.0,469.0 249.0,474.0 250.0,475.0 250.0,476.0 253.0,479.0 254.0,479.0 255.0,480.0 356.0,480.0 357.0,479.0 358.0,479.0 361.0,476.0 361.0,474.0 362.0,473.0 362.0,469.0 361.0,468.0 361.0,467.0 360.0,466.0 360.0,465.0 359.0,464.0 358.0,464.0 357.0,463.0 356.0,463.0 355.0,462.0" />
    <polygon fill="currentColor"
        points="438.0,266.0 437.0,267.0 436.0,267.0 434.0,269.0 434.0,270.0 433.0,271.0 433.0,277.0 436.0,280.0 437.0,280.0 438.0,281.0 483.0,281.0 484.0,280.0 485.0,280.0 488.0,277.0 488.0,271.0 487.0,270.0 487.0,269.0 485.0,267.0 483.0,267.0 482.0,266.0" />
    <polygon fill="currentColor"
        points="128.0,266.0 126.0,268.0 125.0,268.0 124.0,269.0 124.0,270.0 123.0,271.0 123.0,277.0 126.0,280.0 127.0,280.0 128.0,281.0 173.0,281.0 174.0,280.0 175.0,280.0 178.0,277.0 178.0,271.0 177.0,270.0 177.0,269.0 175.0,267.0 173.0,267.0 172.0,266.0" />
    <polygon fill="currentColor"
        points="290.0,259.0 289.0,260.0 287.0,260.0 286.0,261.0 285.0,261.0 284.0,262.0 283.0,262.0 283.0,263.0 282.0,264.0 282.0,266.0 283.0,267.0 283.0,269.0 284.0,270.0 284.0,273.0 283.0,274.0 283.0,276.0 275.0,284.0 267.0,284.0 266.0,283.0 263.0,283.0 261.0,285.0 261.0,286.0 260.0,287.0 260.0,288.0 259.0,289.0 259.0,291.0 258.0,292.0 259.0,293.0 259.0,294.0 261.0,296.0 262.0,296.0 263.0,297.0 264.0,297.0 267.0,300.0 267.0,301.0 268.0,302.0 268.0,313.0 267.0,314.0 267.0,315.0 264.0,318.0 263.0,318.0 262.0,319.0 261.0,319.0 259.0,321.0 259.0,325.0 260.0,326.0 260.0,328.0 261.0,329.0 261.0,330.0 262.0,331.0 263.0,331.0 264.0,332.0 266.0,332.0 267.0,331.0 270.0,331.0 271.0,330.0 272.0,330.0 273.0,331.0 275.0,331.0 276.0,332.0 277.0,332.0 278.0,333.0 278.0,334.0 279.0,334.0 282.0,337.0 282.0,338.0 284.0,340.0 284.0,346.0 283.0,347.0 283.0,352.0 284.0,353.0 285.0,353.0 286.0,354.0 288.0,354.0 289.0,355.0 290.0,355.0 291.0,356.0 292.0,356.0 293.0,355.0 294.0,355.0 296.0,353.0 296.0,352.0 297.0,351.0 297.0,350.0 300.0,347.0 301.0,347.0 302.0,346.0 312.0,346.0 313.0,347.0 314.0,347.0 318.0,351.0 318.0,352.0 319.0,353.0 319.0,354.0 320.0,355.0 321.0,355.0 322.0,356.0 323.0,356.0 324.0,355.0 326.0,355.0 327.0,354.0 328.0,354.0 329.0,353.0 330.0,353.0 331.0,352.0 331.0,346.0 330.0,345.0 330.0,341.0 331.0,340.0 331.0,339.0 332.0,338.0 332.0,337.0 338.0,331.0 339.0,331.0 340.0,330.0 345.0,330.0 346.0,331.0 351.0,331.0 352.0,330.0 353.0,330.0 353.0,328.0 354.0,327.0 354.0,326.0 355.0,325.0 355.0,320.0 354.0,319.0 353.0,319.0 352.0,318.0 351.0,318.0 346.0,313.0 346.0,301.0 351.0,296.0 352.0,296.0 353.0,295.0 354.0,295.0 355.0,294.0 355.0,289.0 354.0,288.0 354.0,287.0 353.0,286.0 353.0,285.0 351.0,283.0 346.0,283.0 345.0,284.0 340.0,284.0 339.0,283.0 338.0,283.0 330.0,275.0 330.0,268.0 331.0,267.0 331.0,263.0 329.0,261.0 328.0,261.0 327.0,260.0 325.0,260.0 324.0,259.0 320.0,259.0 319.0,260.0 319.0,261.0 318.0,262.0 318.0,263.0 313.0,268.0 301.0,268.0 300.0,267.0 299.0,267.0 296.0,264.0 296.0,263.0 295.0,262.0 295.0,261.0 293.0,259.0" />
    <polygon fill="currentColor"
        points="342.0,186.0 341.0,187.0 339.0,187.0 338.0,188.0 337.0,188.0 335.0,190.0 335.0,191.0 333.0,193.0 333.0,195.0 331.0,197.0 331.0,198.0 330.0,199.0 330.0,200.0 328.0,202.0 328.0,203.0 325.0,206.0 324.0,206.0 322.0,208.0 321.0,208.0 320.0,209.0 318.0,209.0 317.0,210.0 311.0,210.0 310.0,211.0 308.0,211.0 307.0,212.0 306.0,212.0 305.0,213.0 304.0,213.0 301.0,216.0 301.0,217.0 300.0,218.0 300.0,219.0 299.0,220.0 299.0,222.0 298.0,223.0 298.0,229.0 299.0,230.0 299.0,232.0 300.0,233.0 300.0,234.0 305.0,239.0 306.0,239.0 307.0,240.0 308.0,240.0 309.0,241.0 313.0,241.0 314.0,242.0 319.0,242.0 320.0,243.0 323.0,243.0 324.0,244.0 327.0,244.0 328.0,245.0 329.0,245.0 330.0,246.0 331.0,246.0 332.0,247.0 334.0,247.0 335.0,248.0 336.0,248.0 337.0,249.0 338.0,249.0 340.0,251.0 341.0,251.0 343.0,253.0 344.0,253.0 347.0,256.0 348.0,256.0 356.0,264.0 356.0,265.0 360.0,269.0 360.0,270.0 362.0,272.0 362.0,273.0 363.0,274.0 363.0,275.0 365.0,277.0 365.0,278.0 366.0,279.0 366.0,281.0 367.0,282.0 367.0,283.0 368.0,284.0 368.0,286.0 369.0,287.0 369.0,289.0 370.0,290.0 370.0,293.0 371.0,294.0 371.0,299.0 372.0,300.0 372.0,315.0 371.0,316.0 371.0,321.0 370.0,322.0 370.0,325.0 369.0,326.0 369.0,328.0 368.0,329.0 368.0,331.0 367.0,332.0 367.0,333.0 366.0,334.0 366.0,335.0 365.0,336.0 365.0,337.0 364.0,338.0 364.0,339.0 363.0,340.0 363.0,341.0 362.0,342.0 362.0,343.0 360.0,345.0 360.0,346.0 356.0,350.0 356.0,351.0 349.0,358.0 348.0,358.0 345.0,361.0 344.0,361.0 341.0,364.0 340.0,364.0 339.0,365.0 338.0,365.0 337.0,366.0 336.0,366.0 335.0,367.0 334.0,367.0 333.0,368.0 332.0,368.0 331.0,369.0 330.0,369.0 329.0,370.0 327.0,370.0 326.0,371.0 323.0,371.0 322.0,372.0 320.0,372.0 319.0,373.0 303.0,373.0 302.0,374.0 300.0,374.0 299.0,375.0 298.0,375.0 296.0,377.0 295.0,377.0 294.0,378.0 294.0,379.0 292.0,381.0 292.0,382.0 291.0,383.0 291.0,386.0 290.0,387.0 290.0,391.0 291.0,392.0 291.0,394.0 292.0,395.0 292.0,396.0 293.0,397.0 293.0,398.0 297.0,402.0 298.0,402.0 299.0,403.0 300.0,403.0 301.0,404.0 303.0,404.0 304.0,405.0 319.0,405.0 320.0,406.0 321.0,406.0 322.0,407.0 323.0,407.0 324.0,408.0 325.0,408.0 330.0,413.0 330.0,414.0 332.0,416.0 332.0,417.0 333.0,418.0 333.0,419.0 334.0,420.0 334.0,421.0 336.0,423.0 336.0,424.0 339.0,427.0 340.0,427.0 341.0,428.0 347.0,428.0 348.0,427.0 349.0,427.0 350.0,426.0 352.0,426.0 353.0,425.0 354.0,425.0 355.0,424.0 357.0,424.0 358.0,423.0 359.0,423.0 360.0,422.0 361.0,422.0 362.0,421.0 363.0,421.0 366.0,418.0 366.0,417.0 367.0,416.0 367.0,408.0 366.0,407.0 366.0,405.0 365.0,404.0 365.0,402.0 364.0,401.0 364.0,390.0 365.0,389.0 365.0,387.0 366.0,386.0 366.0,385.0 372.0,379.0 372.0,378.0 378.0,372.0 379.0,372.0 379.0,371.0 380.0,370.0 381.0,370.0 384.0,367.0 385.0,367.0 386.0,366.0 388.0,366.0 389.0,365.0 399.0,365.0 400.0,366.0 403.0,366.0 404.0,367.0 407.0,367.0 408.0,368.0 415.0,368.0 416.0,367.0 417.0,367.0 419.0,365.0 419.0,364.0 420.0,363.0 420.0,362.0 421.0,361.0 421.0,360.0 422.0,359.0 422.0,358.0 423.0,357.0 423.0,355.0 424.0,354.0 424.0,352.0 425.0,351.0 425.0,350.0 426.0,349.0 426.0,346.0 427.0,345.0 426.0,344.0 426.0,341.0 425.0,340.0 425.0,339.0 423.0,337.0 422.0,337.0 420.0,335.0 419.0,335.0 418.0,334.0 417.0,334.0 416.0,333.0 415.0,333.0 414.0,332.0 413.0,332.0 411.0,330.0 410.0,330.0 407.0,327.0 407.0,326.0 405.0,324.0 405.0,323.0 404.0,322.0 404.0,320.0 403.0,319.0 403.0,294.0 404.0,293.0 404.0,292.0 405.0,291.0 405.0,290.0 406.0,289.0 406.0,288.0 411.0,283.0 412.0,283.0 414.0,281.0 415.0,281.0 416.0,280.0 417.0,280.0 418.0,279.0 419.0,279.0 421.0,277.0 422.0,277.0 425.0,274.0 425.0,273.0 426.0,272.0 426.0,266.0 425.0,265.0 425.0,263.0 424.0,262.0 424.0,261.0 423.0,260.0 423.0,258.0 422.0,257.0 422.0,256.0 421.0,255.0 421.0,254.0 420.0,253.0 420.0,251.0 415.0,246.0 406.0,246.0 405.0,247.0 403.0,247.0 402.0,248.0 400.0,248.0 399.0,249.0 388.0,249.0 387.0,248.0 385.0,248.0 384.0,247.0 383.0,247.0 365.0,229.0 365.0,228.0 364.0,227.0 364.0,225.0 363.0,224.0 363.0,214.0 364.0,213.0 364.0,210.0 365.0,209.0 365.0,206.0 366.0,205.0 366.0,198.0 365.0,197.0 365.0,196.0 363.0,194.0 362.0,194.0 360.0,192.0 358.0,192.0 357.0,191.0 356.0,191.0 355.0,190.0 353.0,190.0 352.0,189.0 351.0,189.0 350.0,188.0 348.0,188.0 347.0,187.0 345.0,187.0 344.0,186.0" />
    <polygon fill="currentColor"
        points="300.0,177.0 299.0,178.0 290.0,178.0 289.0,179.0 284.0,179.0 283.0,180.0 280.0,180.0 279.0,181.0 276.0,181.0 275.0,182.0 273.0,182.0 272.0,183.0 270.0,183.0 269.0,184.0 268.0,184.0 267.0,185.0 265.0,185.0 264.0,186.0 263.0,186.0 262.0,187.0 261.0,187.0 260.0,188.0 259.0,188.0 258.0,189.0 257.0,189.0 256.0,190.0 255.0,190.0 254.0,191.0 253.0,191.0 252.0,192.0 251.0,192.0 249.0,194.0 248.0,194.0 246.0,196.0 245.0,196.0 243.0,198.0 242.0,198.0 236.0,204.0 235.0,204.0 226.0,213.0 226.0,214.0 221.0,219.0 221.0,220.0 219.0,222.0 219.0,223.0 217.0,225.0 217.0,226.0 215.0,228.0 215.0,229.0 214.0,230.0 214.0,231.0 213.0,232.0 213.0,233.0 211.0,235.0 211.0,236.0 210.0,237.0 210.0,239.0 209.0,240.0 209.0,241.0 208.0,242.0 208.0,243.0 207.0,244.0 207.0,246.0 206.0,247.0 206.0,249.0 205.0,250.0 205.0,252.0 204.0,253.0 204.0,255.0 203.0,256.0 203.0,260.0 202.0,261.0 202.0,265.0 201.0,266.0 201.0,273.0 200.0,274.0 200.0,293.0 201.0,294.0 201.0,301.0 202.0,302.0 202.0,306.0 203.0,307.0 203.0,310.0 204.0,311.0 204.0,313.0 205.0,314.0 205.0,317.0 206.0,318.0 206.0,319.0 207.0,320.0 207.0,322.0 208.0,323.0 208.0,324.0 209.0,325.0 209.0,326.0 210.0,327.0 210.0,328.0 211.0,329.0 211.0,330.0 212.0,331.0 212.0,332.0 213.0,333.0 213.0,334.0 214.0,335.0 214.0,336.0 215.0,337.0 215.0,338.0 216.0,339.0 216.0,340.0 217.0,341.0 217.0,342.0 218.0,343.0 218.0,344.0 219.0,345.0 219.0,346.0 220.0,347.0 220.0,348.0 221.0,349.0 221.0,350.0 222.0,351.0 222.0,353.0 223.0,354.0 223.0,355.0 224.0,356.0 224.0,357.0 225.0,358.0 225.0,359.0 226.0,360.0 226.0,362.0 227.0,363.0 227.0,364.0 228.0,365.0 228.0,366.0 229.0,367.0 229.0,369.0 230.0,370.0 230.0,371.0 231.0,372.0 231.0,374.0 232.0,375.0 232.0,376.0 233.0,377.0 233.0,379.0 234.0,380.0 234.0,382.0 235.0,383.0 235.0,384.0 236.0,385.0 236.0,387.0 237.0,388.0 237.0,390.0 238.0,391.0 238.0,393.0 239.0,394.0 239.0,396.0 240.0,397.0 240.0,399.0 241.0,400.0 241.0,403.0 242.0,404.0 242.0,406.0 243.0,407.0 243.0,410.0 244.0,411.0 244.0,415.0 245.0,416.0 245.0,423.0 246.0,424.0 246.0,428.0 247.0,429.0 247.0,431.0 248.0,432.0 248.0,433.0 249.0,434.0 249.0,435.0 255.0,441.0 256.0,441.0 258.0,443.0 260.0,443.0 261.0,444.0 263.0,444.0 264.0,445.0 307.0,445.0 308.0,444.0 309.0,444.0 312.0,441.0 312.0,440.0 313.0,439.0 313.0,434.0 312.0,433.0 312.0,432.0 311.0,431.0 311.0,430.0 310.0,429.0 309.0,429.0 308.0,428.0 307.0,428.0 306.0,427.0 267.0,427.0 264.0,424.0 264.0,422.0 263.0,421.0 263.0,414.0 262.0,413.0 262.0,408.0 261.0,407.0 261.0,404.0 260.0,403.0 260.0,400.0 259.0,399.0 259.0,397.0 258.0,396.0 258.0,394.0 257.0,393.0 257.0,391.0 256.0,390.0 256.0,388.0 255.0,387.0 255.0,385.0 254.0,384.0 254.0,382.0 253.0,381.0 253.0,379.0 252.0,378.0 252.0,376.0 251.0,375.0 251.0,374.0 250.0,373.0 250.0,371.0 249.0,370.0 249.0,369.0 248.0,368.0 248.0,366.0 247.0,365.0 247.0,364.0 246.0,363.0 246.0,361.0 245.0,360.0 245.0,359.0 244.0,358.0 244.0,357.0 243.0,356.0 243.0,354.0 242.0,353.0 242.0,352.0 241.0,351.0 241.0,350.0 240.0,349.0 240.0,347.0 239.0,346.0 239.0,345.0 238.0,344.0 238.0,343.0 237.0,342.0 237.0,341.0 236.0,340.0 236.0,338.0 235.0,337.0 235.0,336.0 234.0,335.0 234.0,334.0 233.0,333.0 233.0,332.0 232.0,331.0 232.0,330.0 231.0,329.0 231.0,328.0 230.0,327.0 230.0,326.0 229.0,325.0 229.0,324.0 228.0,323.0 228.0,322.0 227.0,321.0 227.0,320.0 226.0,319.0 226.0,318.0 225.0,317.0 225.0,316.0 224.0,315.0 224.0,314.0 223.0,313.0 223.0,311.0 222.0,310.0 222.0,308.0 221.0,307.0 221.0,305.0 220.0,304.0 220.0,299.0 219.0,298.0 219.0,292.0 218.0,291.0 218.0,276.0 219.0,275.0 219.0,268.0 220.0,267.0 220.0,263.0 221.0,262.0 221.0,260.0 222.0,259.0 222.0,256.0 223.0,255.0 223.0,254.0 224.0,253.0 224.0,251.0 225.0,250.0 225.0,248.0 227.0,246.0 227.0,244.0 229.0,242.0 229.0,241.0 230.0,240.0 230.0,239.0 231.0,238.0 231.0,237.0 233.0,235.0 233.0,234.0 236.0,231.0 236.0,230.0 241.0,225.0 241.0,224.0 248.0,217.0 249.0,217.0 253.0,213.0 254.0,213.0 257.0,210.0 258.0,210.0 260.0,208.0 261.0,208.0 262.0,207.0 263.0,207.0 264.0,206.0 265.0,206.0 266.0,205.0 267.0,205.0 268.0,204.0 269.0,204.0 270.0,203.0 271.0,203.0 272.0,202.0 273.0,202.0 274.0,201.0 276.0,201.0 277.0,200.0 279.0,200.0 280.0,199.0 282.0,199.0 283.0,198.0 286.0,198.0 287.0,197.0 291.0,197.0 292.0,196.0 304.0,196.0 305.0,195.0 308.0,195.0 312.0,191.0 312.0,190.0 313.0,189.0 313.0,184.0 312.0,183.0 312.0,182.0 308.0,178.0 306.0,178.0 305.0,177.0" />
    <polygon fill="currentColor"
        points="428.0,142.0 427.0,143.0 426.0,143.0 425.0,144.0 424.0,144.0 396.0,172.0 396.0,173.0 394.0,175.0 394.0,176.0 393.0,177.0 393.0,180.0 394.0,181.0 394.0,182.0 395.0,183.0 395.0,184.0 396.0,184.0 398.0,186.0 403.0,186.0 404.0,185.0 405.0,185.0 436.0,154.0 436.0,153.0 437.0,152.0 437.0,148.0 436.0,147.0 436.0,146.0 435.0,145.0 435.0,144.0 434.0,144.0 433.0,143.0 432.0,143.0 431.0,142.0" />
    <polygon fill="currentColor"
        points="180.0,142.0 179.0,143.0 178.0,143.0 177.0,144.0 176.0,144.0 176.0,145.0 175.0,146.0 175.0,147.0 174.0,148.0 174.0,151.0 175.0,152.0 175.0,154.0 206.0,185.0 207.0,185.0 208.0,186.0 213.0,186.0 214.0,185.0 215.0,185.0 216.0,184.0 216.0,183.0 217.0,182.0 217.0,181.0 218.0,180.0 218.0,177.0 217.0,176.0 217.0,175.0 216.0,174.0 216.0,173.0 187.0,144.0 186.0,144.0 185.0,143.0 184.0,143.0 183.0,142.0" />
    <polygon fill="currentColor"
        points="303.0,98.0 302.0,99.0 301.0,99.0 299.0,101.0 299.0,102.0 298.0,103.0 298.0,148.0 299.0,149.0 299.0,150.0 302.0,153.0 304.0,153.0 305.0,154.0 307.0,154.0 308.0,153.0 309.0,153.0 312.0,150.0 312.0,149.0 313.0,148.0 313.0,103.0 312.0,102.0 312.0,101.0 310.0,99.0 309.0,99.0 308.0,98.0" />
</svg>